<?xml version="1.0" encoding="UTF-8"?>
<!DOCTYPE svg PUBLIC "-//W3C//DTD SVG 1.0//EN" "http://www.w3.org/TR/2001/REC-SVG-20010904/DTD/svg10.dtd">
<!-- Creator: CorelDRAW 2021 (64-Bit) -->
<svg xmlns="http://www.w3.org/2000/svg" xml:space="preserve" width="210mm" height="297mm" version="1.0" style="shape-rendering:geometricPrecision; text-rendering:geometricPrecision; image-rendering:optimizeQuality; fill-rule:evenodd; clip-rule:evenodd"
viewBox="0 0 21000 29700"
 xmlns:xlink="http://www.w3.org/1999/xlink"
 xmlns:xodm="http://www.corel.com/coreldraw/odm/2003">
 <defs>
  <style type="text/css">
   <![CDATA[
    .str0 {stroke:black;stroke-width:20;stroke-linecap:round;stroke-linejoin:round;stroke-miterlimit:22.9256}
    .fil1 {fill:none}
    .fil2 {fill:#336699}
    .fil0 {fill:#66FFCC}
    .fil3 {fill:url(#id0)}
    .fil4 {fill:url(#id1)}
   ]]>
  </style>
  <linearGradient id="id0" gradientUnits="userSpaceOnUse" x1="-97810.59" y1="18682.25" x2="-97810.55" y2="-21468.14">
   <stop offset="0" style="stop-opacity:1; stop-color:#0F4C81"/>
   <stop offset="0.490196" style="stop-opacity:1; stop-color:#3A5996"/>
   <stop offset="1" style="stop-opacity:1; stop-color:#6667AB"/>
  </linearGradient>
  <linearGradient id="id1" gradientUnits="userSpaceOnUse" x1="-97714.71" y1="18394.62" x2="-97714.67" y2="-21573.9">
   <stop offset="0" style="stop-opacity:1; stop-color:#6667AB"/>
   <stop offset="1" style="stop-opacity:1; stop-color:#FEFEFE"/>
  </linearGradient>
 </defs>
 <g id="Capa_x0020_1">
  <metadata id="CorelCorpID_0Corel-Layer"/>
  <polygon class="fil0" points="-115948.42,-11446.72 -115948.42,9337.88 -97948.42,19730.19 -79948.42,9337.88 -79948.42,-11446.72 -97948.42,-21839.03 "/>
  <g id="_3114347560032">
   <polygon class="fil1 str0" points="50003.5,19730.19 32003.5,9337.88 32003.5,-11446.72 50003.5,-21839.03 68003.5,-11446.72 68003.5,9337.88 "/>
  </g>
  <polygon class="fil1 str0" points="50003.5,16266.09 42503.49,11935.97 35003.5,7605.83 35003.5,-1054.42 35003.5,-9714.67 42503.49,-14044.81 50003.5,-18374.93 57503.51,-14044.81 65003.5,-9714.67 65003.5,-1054.42 65003.5,7605.83 57503.51,11935.97 "/>
  <polygon class="fil1 str0" points="51336.84,14341.61 51336.84,-16450.47 54336.84,-14718.41 54336.84,12609.55 "/>
  <polygon class="fil1 str0" points="48670.17,-16450.47 48670.17,14341.64 45670.17,12609.58 45670.17,-14718.4 "/>
  <polygon class="fil1 str0" points="41670.17,-8944.88 39003.5,-7405.28 39003.5,5296.45 41670.17,6836.06 41670.17,-954.44 44670.17,-954.44 44670.17,12032.22 36003.5,7028.49 36003.5,-9137.32 44670.17,-14141.04 44670.17,-1154.42 41670.17,-1154.42 "/>
  <polygon class="fil1 str0" points="58336.83,6755.43 61003.5,5215.82 61003.5,-10869.38 64003.5,-9137.32 64003.5,7028.47 55336.83,12032.2 55336.83,-14141.06 58336.83,-12409 "/>
  <g id="_3114347556048">
   <polyline class="fil1 str0" points="102048.45,-5154.42 102048.45,-12408.99 95381.78,-8559.97 95381.78,6451.14 102048.45,10300.17 102048.45,3045.56 "/>
   <polyline class="fil1 str0" points="114715.11,-14352.38 114715.11,10219.54 121381.78,6370.51 121381.78,-9926 "/>
   <g>
    <line class="fil1 str0" x1="111715.12" y1="13398.23" x2="111715.12" y2= "-15507.08" />
    <line class="fil1 str0" x1="105048.45" y1="-15507.08" x2="105048.45" y2= "13398.26" />
    <line class="fil1 str0" x1="105048.45" y1="-1054.42" x2="111715.13" y2= "-1054.42" />
   </g>
  </g>
  <path class="fil2 str0" d="M-25221.17 -12686.82l0 8660.25 0 8660.25 -7499.99 4330.14 -7500.01 4330.12 -7500.01 -4330.12 -7499.99 -4330.14 0 -8660.25 0 -8660.25 7499.99 -4330.14 7500.01 -4330.12 7500.01 4330.12 7499.99 4330.14zm-32000 -1154.7l0 19629.9 17000 9814.96 17000 -9814.96 0 -19629.9 -17000 -9814.96 -17000 9814.96zm22333.33 -3271.69l0 26092.66 8666.67 -5003.74 0 -16085.18 -2000 -1154.71 0 16085.19 -4666.67 2694.32 0 -21473.83 -2000 -1154.71zm-10666.66 26173.29l0 -9986.67 -2000 0 0 6522.55 -4666.67 -2694.32 0 -13856.41 4666.67 -2694.32 0 6522.52 2000 0 0 -9986.62 -8666.67 5003.72 0 16165.81 8666.67 5003.74zm3000 1732.06l0 -13818.71 -2000 0 0 12664 2000 1154.71zm4666.67 -15818.71l2000 0 0 -12663.99 -2000 -1154.7 0 13818.69zm2000.01 2000l-2000.01 0 0 13818.68 2000 -1154.71 0.01 -12663.97zm-2000.01 -2000l0 2000 2000.01 0 -1000 -1000 1000 -1000 -2000.01 0zm-4666.67 0l0 2000 4666.67 0 0 -2000 -4666.67 0zm0 0l-2000 0 0 2000 2000 0 0 -2000zm0 0l0 -13818.69 -2000 1154.71 0 12663.98 2000 0z"/>
  <g id="_3114347555232">
   <polygon class="fil1 str0" points="50003.5,-37665.08 34140,-46823.88 34140,-65141.46 50003.5,-74300.26 65867,-65141.46 65867,-46823.88 "/>
  </g>
  <polygon class="fil1 str0" points="50003.5,-38662.16 42503.49,-42992.28 35003.5,-47322.42 35003.5,-55982.67 35003.5,-64642.92 42503.49,-68973.06 50003.5,-73303.18 57503.51,-68973.06 65003.5,-64642.92 65003.5,-55982.67 65003.5,-47322.42 57503.51,-42992.28 "/>
  <polygon class="fil1 str0" points="52336.84,-41163.99 52336.84,-70801.36 54336.84,-69646.66 54336.84,-42318.7 "/>
  <polygon class="fil1 str0" points="47670.17,-70801.36 47670.17,-41163.96 45670.17,-42318.67 45670.17,-69646.65 "/>
  <polygon class="fil1 str0" points="45670.17,-56982.67 54336.85,-56982.67 54336.85,-54982.67 45670.17,-54982.67 "/>
  <polygon class="fil1 str0" points="42670.17,-65605.19 38003.5,-62910.87 38003.5,-49054.46 42670.17,-46360.14 42670.17,-52882.69 44670.17,-52882.69 44670.17,-42896.02 36003.5,-47899.76 36003.5,-64065.57 44670.17,-69069.29 44670.17,-59082.67 42670.17,-59082.67 "/>
  <polygon class="fil1 str0" points="57336.83,-46440.77 62003.5,-49135.09 62003.5,-65220.28 64003.5,-64065.57 64003.5,-47980.39 55336.83,-42976.65 55336.83,-69069.31 57336.83,-67914.6 "/>
  <polyline class="fil1 str0" points="54336.85,-54982.67 53336.85,-55982.67 54336.85,-56982.67 "/>
  <polygon class="fil1 str0" points="45670.21,-2554.44 54336.84,-2554.41 54336.81,445.59 45670.18,445.56 "/>
  <g id="_3114347602464">
   <line class="fil1 str0" x1="108250.04" y1="-27737.07" x2="108250.04" y2= "-58065.03" />
   <line class="fil1 str0" x1="102583.37" y1="-58065.02" x2="102583.37" y2= "-27737.04" />
   <polyline class="fil1 str0" points="98583.37,-44501.04 98583.37,-53389.58 92916.7,-50117.92 92916.7,-35684.15 98583.37,-32412.48 98583.37,-41301.06 "/>
   <polyline class="fil1 str0" points="112250.03,-57487.68 112250.03,-32493.11 117916.7,-35764.78 117916.7,-52483.94 "/>
   <line class="fil1 str0" x1="104083.37" y1="-42901.05" x2="106750.04" y2= "-42901.04" />
  </g>
  <polyline class="fil1 str0" points="54336.81,445.59 52836.83,-1054.43 54336.84,-2554.41 "/>
  <path class="fil2" d="M44670.17 12032.22l0 -11586.63 -3000 0 0 6390.47 -2666.67 -1539.61 0 -12701.73 2666.67 -1539.6 0 6390.47 3000 0 0 -11586.63 -8666.67 5003.72 0 16165.81 8666.67 5003.73zm4000 2309.42l0 -13896.07 2666.67 0.01 0 13896.03 3000 -1732.06 -0.03 -12163.96 -1499.98 -1500.02 1500.01 -1499.98 0 -12164 -3000 -1732.06 0 13896.05 -2666.67 -0.01 0 -13896.04 -3000 1732.07 0.04 12163.96 -0.04 3000 0 12164.02 3000 1732.06zm6666.66 -28482.7l0 26173.26 8666.67 -5003.73 0 -16165.79 -3000 -1732.06 0 16085.2 -2666.67 1539.61 0 -19164.43 -3000 -1732.06zm9666.67 13086.64l0 8660.25 -7499.99 4330.14 -7500.01 4330.12 -7500.01 -4330.12 -7499.99 -4330.14 0 -8660.25 0 -8660.25 7499.99 -4330.14 7500.01 -4330.12 7500.01 4330.12 7499.99 4330.14 0 8660.25zm-33000 -10392.3l0 20784.6 18000 10392.31 18000 -10392.31 0 -20784.6 -18000 -10392.31 -18000 10392.31z"/>
  <path class="fil3" d="M-103281.75 12032.22l0 -11586.63 -3000 0 0 6390.47 -2666.67 -1539.61 0 -12701.73 2666.67 -1539.6 0 6390.47 3000 0 0 -11586.63 -8666.67 5003.72 0 16165.81 8666.67 5003.73zm4000 2309.42l0 -13896.07 2666.67 0.01 0 13896.03 3000 -1732.06 -0.03 -12163.96 -1499.98 -1500.02 1500.01 -1499.98 0 -12164 -3000 -1732.06 0 13896.05 -2666.67 -0.01 0 -13896.04 -3000 1732.07 0.04 12163.96 -0.04 3000 0 12164.02 3000 1732.06zm6666.66 -28482.7l0 26173.26 8666.67 -5003.73 0 -16165.79 -3000 -1732.06 0 16085.2 -2666.67 1539.61 0 -19164.43 -3000 -1732.06zm9666.67 13086.64l0 8660.25 -7499.99 4330.14 -7500.01 4330.12 -7500.01 -4330.12 -7499.99 -4330.14 0 -8660.25 0 -8660.25 7499.99 -4330.14 7500.01 -4330.12 7500.01 4330.12 7499.99 4330.14 0 8660.25zm-33000 -10392.3l0 20784.6 18000 10392.31 18000 -10392.31 0 -20784.6 -18000 -10392.31 -18000 10392.31z"/>
  <polygon class="fil4 str0" points="-144693.9,-18613.48 -131750.65,-18613.48 -131750.65,-4903.23 -144693.9,-4903.23 "/>
 </g>
</svg>
